<svg width="48" height="48" viewBox="0 0 48 48" fill="none" xmlns="http://www.w3.org/2000/svg">
<path fill-rule="evenodd" clip-rule="evenodd" d="M24 0C10.752 0 0 10.752 0 24C0 37.248 10.752 48 24 48C37.248 48 48 37.248 48 24C48 10.752 37.248 0 24 0ZM24 7.20029C27.984 7.20029 31.2 10.4163 31.2 14.4003C31.2 18.3843 27.984 21.6003 24 21.6003C20.016 21.6003 16.8 18.3843 16.8 14.4003C16.8 10.4163 20.016 7.20029 24 7.20029ZM9.59941 33.5518C12.6954 38.2078 17.9994 41.2798 23.9994 41.2798C29.9994 41.2798 35.3034 38.2078 38.3994 33.5518C38.3274 28.7758 28.7754 26.1598 23.9994 26.1598C19.1994 26.1598 9.67141 28.7758 9.59941 33.5518Z" fill="white"/>
</svg>
